<?xml version="1.0" encoding="UTF-8"?>
<!-- Generated by Pixelmator Pro 3.7 -->
<svg width="32" height="32" viewBox="0 0 32 32" xmlns="http://www.w3.org/2000/svg">
    <path id="Path" fill="#000000" stroke="none" d="M -9.6 -9.599998 L 41.599998 -9.599998 L 41.599998 41.599998 L -9.6 41.599998 Z"/>
    <g id="Group">
        <g id="g1">
            <path id="path1" fill="none" stroke="#ffffff" stroke-width="1.3056" stroke-linecap="round" d="M 16 5.120001 L 25.465601 10.559999 L 25.465601 21.439999 L 16 26.880001 L 6.5344 21.439999 L 6.5344 10.559999 Z"/>
            <path id="path2" fill="none" stroke="#ffffff" stroke-width="1.3056" stroke-linecap="round" d="M 16 5.120001 L 16 16"/>
            <path id="path3" fill="none" stroke="#ffffff" stroke-width="1.3056" stroke-linecap="round" d="M 25.465601 10.559999 L 16 16"/>
            <path id="path4" fill="none" stroke="#ffffff" stroke-width="1.3056" stroke-linecap="round" d="M 25.465601 21.439999 L 16 16"/>
            <path id="path5" fill="none" stroke="#ffffff" stroke-width="1.3056" stroke-linecap="round" d="M 16 26.880001 L 16 16"/>
            <path id="path6" fill="none" stroke="#ffffff" stroke-width="1.3056" stroke-linecap="round" d="M 6.5344 21.439999 L 16 16"/>
            <path id="path7" fill="none" stroke="#ffffff" stroke-width="1.3056" stroke-linecap="round" d="M 6.5344 10.559999 L 16 16"/>
        </g>
        <path id="path8" fill="#ffffff" stroke="none" d="M 20.896 16 C 20.896 18.703987 18.703987 20.896 16 20.896 C 13.296014 20.896 11.104 18.703987 11.104 16 C 11.104 13.296013 13.296014 11.104 16 11.104 C 18.703987 11.104 20.896 13.296013 20.896 16 Z"/>
        <path id="path9" fill="#000000" stroke="none" d="M 19.4816 16 C 19.4816 17.922834 17.922834 19.4816 16 19.4816 C 14.077166 19.4816 12.5184 17.922834 12.5184 16 C 12.5184 14.077166 14.077166 12.5184 16 12.5184 C 17.922834 12.5184 19.4816 14.077166 19.4816 16 Z"/>
        <path id="path10" fill="#ffffff" stroke="none" d="M 17.632 16 C 17.632 16.901329 16.901329 17.632 16 17.632 C 15.098672 17.632 14.368 16.901329 14.368 16 C 14.368 15.098671 15.098672 14.368 16 14.368 C 16.901329 14.368 17.632 15.098671 17.632 16 Z"/>
    </g>
</svg>
