<?xml version="1.0" encoding="UTF-8"?>
<!-- Generated by Pixelmator Pro 3.7 -->
<svg width="64" height="64" viewBox="0 0 64 64" xmlns="http://www.w3.org/2000/svg">
    <path id="Path" fill="#000000" stroke="none" d="M 0 0 L 64 0 L 64 64 L 0 64 Z"/>
    <g id="Group">
        <g id="g1">
            <path id="path1" fill="none" stroke="#ffffff" stroke-width="1.024" stroke-linecap="round" d="M 32 19.200001 L 43.136002 25.599998 L 43.136002 38.400002 L 32 44.799999 L 20.863998 38.400002 L 20.863998 25.599998 Z"/>
            <path id="path2" fill="none" stroke="#ffffff" stroke-width="1.024" stroke-linecap="round" d="M 32 19.200001 L 32 32"/>
            <path id="path3" fill="none" stroke="#ffffff" stroke-width="1.024" stroke-linecap="round" d="M 43.136002 25.599998 L 32 32"/>
            <path id="path4" fill="none" stroke="#ffffff" stroke-width="1.024" stroke-linecap="round" d="M 43.136002 38.400002 L 32 32"/>
            <path id="path5" fill="none" stroke="#ffffff" stroke-width="1.024" stroke-linecap="round" d="M 32 44.799999 L 32 32"/>
            <path id="path6" fill="none" stroke="#ffffff" stroke-width="1.024" stroke-linecap="round" d="M 20.863998 38.400002 L 32 32"/>
            <path id="path7" fill="none" stroke="#ffffff" stroke-width="1.024" stroke-linecap="round" d="M 20.863998 25.599998 L 32 32"/>
            <path id="path8" fill="none" stroke="#ffffff" stroke-width="1.024" stroke-linecap="round" d="M 32 19.200001 L 32 11.52"/>
            <path id="path9" fill="none" stroke="#ffffff" stroke-width="1.024" stroke-linecap="round" d="M 43.136002 25.599998 L 48.639999 22.400002"/>
            <path id="path10" fill="none" stroke="#ffffff" stroke-width="1.024" stroke-linecap="round" d="M 43.136002 38.400002 L 48.639999 41.599998"/>
            <path id="path11" fill="none" stroke="#ffffff" stroke-width="1.024" stroke-linecap="round" d="M 32 44.799999 L 32 52.48"/>
            <path id="path12" fill="none" stroke="#ffffff" stroke-width="1.024" stroke-linecap="round" d="M 20.863998 38.400002 L 15.36 41.599998"/>
            <path id="path13" fill="none" stroke="#ffffff" stroke-width="1.024" stroke-linecap="round" d="M 20.863998 25.599998 L 15.36 22.400002"/>
        </g>
        <path id="path14" fill="#ffffff" stroke="none" d="M 34.048 19.200001 C 34.048 20.331078 33.131081 21.247997 32 21.247997 C 30.868921 21.247997 29.952 20.331078 29.952 19.200001 C 29.952 18.06892 30.868921 17.152 32 17.152 C 33.131081 17.152 34.048 18.06892 34.048 19.200001 Z"/>
        <path id="path15" fill="#ffffff" stroke="none" d="M 45.183998 25.599998 C 45.183998 26.731079 44.267078 27.647999 43.136002 27.647999 C 42.004921 27.647999 41.087997 26.731079 41.087997 25.599998 C 41.087997 24.468922 42.004921 23.551998 43.136002 23.551998 C 44.267078 23.551998 45.183998 24.468922 45.183998 25.599998 Z"/>
        <path id="path16" fill="#ffffff" stroke="none" d="M 45.183998 38.400002 C 45.183998 39.531078 44.267078 40.447998 43.136002 40.447998 C 42.004921 40.447998 41.087997 39.531078 41.087997 38.400002 C 41.087997 37.268921 42.004921 36.351997 43.136002 36.351997 C 44.267078 36.351997 45.183998 37.268921 45.183998 38.400002 Z"/>
        <path id="path17" fill="#ffffff" stroke="none" d="M 34.048 44.799999 C 34.048 45.93108 33.131081 46.848 32 46.848 C 30.868921 46.848 29.952 45.93108 29.952 44.799999 C 29.952 43.668922 30.868921 42.751999 32 42.751999 C 33.131081 42.751999 34.048 43.668922 34.048 44.799999 Z"/>
        <path id="path18" fill="#ffffff" stroke="none" d="M 22.911999 38.400002 C 22.911999 39.531078 21.995079 40.447998 20.863998 40.447998 C 19.732922 40.447998 18.816 39.531078 18.816 38.400002 C 18.816 37.268921 19.732922 36.351997 20.863998 36.351997 C 21.995079 36.351997 22.911999 37.268921 22.911999 38.400002 Z"/>
        <path id="path19" fill="#ffffff" stroke="none" d="M 22.911999 25.599998 C 22.911999 26.731079 21.995079 27.647999 20.863998 27.647999 C 19.732922 27.647999 18.816 26.731079 18.816 25.599998 C 18.816 24.468922 19.732922 23.551998 20.863998 23.551998 C 21.995079 23.551998 22.911999 24.468922 22.911999 25.599998 Z"/>
        <path id="path20" fill="#ffffff" stroke="none" d="M 33.535999 11.52 C 33.535999 12.368309 32.848312 13.056 32 13.056 C 31.15169 13.056 30.463999 12.368309 30.463999 11.52 C 30.463999 10.671688 31.15169 9.983997 32 9.983997 C 32.848312 9.983997 33.535999 10.671688 33.535999 11.52 Z"/>
        <path id="path21" fill="#ffffff" stroke="none" d="M 50.176003 22.400002 C 50.176003 23.24831 49.488312 23.936001 48.639999 23.936001 C 47.791691 23.936001 47.104 23.24831 47.104 22.400002 C 47.104 21.551689 47.791691 20.863998 48.639999 20.863998 C 49.488312 20.863998 50.176003 21.551689 50.176003 22.400002 Z"/>
        <path id="path22" fill="#ffffff" stroke="none" d="M 50.176003 41.599998 C 50.176003 42.448311 49.488312 43.136002 48.639999 43.136002 C 47.791691 43.136002 47.104 42.448311 47.104 41.599998 C 47.104 40.75169 47.791691 40.063999 48.639999 40.063999 C 49.488312 40.063999 50.176003 40.75169 50.176003 41.599998 Z"/>
        <path id="path23" fill="#ffffff" stroke="none" d="M 33.535999 52.48 C 33.535999 53.328308 32.848312 54.015999 32 54.015999 C 31.15169 54.015999 30.463999 53.328308 30.463999 52.48 C 30.463999 51.631691 31.15169 50.944 32 50.944 C 32.848312 50.944 33.535999 51.631691 33.535999 52.48 Z"/>
        <path id="path24" fill="#ffffff" stroke="none" d="M 16.896 41.599998 C 16.896 42.448311 16.208309 43.136002 15.36 43.136002 C 14.511692 43.136002 13.824 42.448311 13.824 41.599998 C 13.824 40.75169 14.511692 40.063999 15.36 40.063999 C 16.208309 40.063999 16.896 40.75169 16.896 41.599998 Z"/>
        <path id="path25" fill="#ffffff" stroke="none" d="M 16.896 22.400002 C 16.896 23.24831 16.208309 23.936001 15.36 23.936001 C 14.511692 23.936001 13.824 23.24831 13.824 22.400002 C 13.824 21.551689 14.511692 20.863998 15.36 20.863998 C 16.208309 20.863998 16.896 21.551689 16.896 22.400002 Z"/>
        <path id="path26" fill="#ffffff" stroke="none" d="M 36.48 32 C 36.48 34.474236 34.474236 36.48 32 36.48 C 29.525764 36.48 27.52 34.474236 27.52 32 C 27.52 29.525764 29.525764 27.52 32 27.52 C 34.474236 27.52 36.48 29.525764 36.48 32 Z"/>
        <path id="path27" fill="#000000" stroke="none" d="M 35.200001 32 C 35.200001 33.767311 33.767311 35.200001 32 35.200001 C 30.232689 35.200001 28.799999 33.767311 28.799999 32 C 28.799999 30.232689 30.232689 28.799999 32 28.799999 C 33.767311 28.799999 35.200001 30.232689 35.200001 32 Z"/>
        <path id="path28" fill="#ffffff" stroke="none" d="M 33.279999 32 C 33.279999 32.706924 32.706924 33.279999 32 33.279999 C 31.293076 33.279999 30.719999 32.706924 30.719999 32 C 30.719999 31.293076 31.293076 30.720001 32 30.720001 C 32.706924 30.720001 33.279999 31.293076 33.279999 32 Z"/>
    </g>
</svg>
