<?xml version="1.0" encoding="UTF-8"?>
<!-- Generated by Pixelmator Pro 3.7.1 -->
<svg width="1000" height="450" viewBox="0 0 1000 450" xmlns="http://www.w3.org/2000/svg" xmlns:xlink="http://www.w3.org/1999/xlink">
    <g id="figure1">
        <g id="patch1">
            <path id="Path" fill="#000000" stroke="none" visibility="hidden" d="M -18 547 L 1042.799927 547 L 1042.799927 -105.799988 L -18 -105.799988 Z"/>
        </g>
        <defs>
            <path id="path1" d="M -18 547 L 1042.799927 547 L 1042.799927 -105.799988 L -18 -105.799988 L -18 547 Z"/>
        </defs>
        <text id="Text" xml:space="preserve"><textPath xlink:href="#path1" startOffset="567.098389"><tspan font-family="Space Grotesk" font-size="16" font-weight="700" fill="#ffffff" xml:space="preserve">Text</tspan></textPath></text>
        <g id="axes1">
            <g id="patch3">
                <clipPath id="clipPath1">
                    <path d="M 6.599999 -53.999971 L 1048.200097 -53.999971 L 1048.200097 500.399992 L 6.599999 500.399992 Z"/>
                </clipPath>
                <path id="path2" fill="#e45756" stroke="#ffffff" stroke-width="1.333333" clip-path="url(#clipPath1)" d="M 89.928001 167.76001 L 123.779999 167.76001 L 123.779999 121.559998 L 89.928001 121.559998 Z"/>
            </g>
            <g id="patch4">
                <clipPath id="clipPath2">
                    <path d="M 6.599999 -53.999971 L 1048.200097 -53.999971 L 1048.200097 500.399992 L 6.599999 500.399992 Z"/>
                </clipPath>
                <path id="path3" fill="#f2a65a" stroke="#ffffff" stroke-width="1.333333" clip-path="url(#clipPath2)" d="M 127.425598 167.76001 L 161.277603 167.76001 L 161.277603 121.559998 L 127.425598 121.559998 Z"/>
            </g>
            <g id="patch5">
                <clipPath id="clipPath3">
                    <path d="M 6.599999 -53.999971 L 1048.200097 -53.999971 L 1048.200097 500.399992 L 6.599999 500.399992 Z"/>
                </clipPath>
                <path id="path4" fill="none" stroke="#cfcfcf" stroke-width="1.333333" stroke-dasharray="3.7 1.6" stroke-dashoffset="0" clip-path="url(#clipPath3)" d="M 164.923203 167.76001 L 198.775208 167.76001 L 198.775208 121.559998 L 164.923203 121.559998 L 164.923203 167.76001 Z"/>
            </g>
            <g id="patch6">
                <clipPath id="clipPath4">
                    <path d="M 6.599999 -53.999971 L 1048.200097 -53.999971 L 1048.200097 500.399992 L 6.599999 500.399992 Z"/>
                </clipPath>
                <path id="path5" fill="#e45756" stroke="#ffffff" stroke-width="1.333333" clip-path="url(#clipPath4)" d="M 89.928001 241.679993 L 123.779999 241.679993 L 123.779999 195.480011 L 89.928001 195.480011 Z"/>
            </g>
            <g id="patch7">
                <clipPath id="clipPath5">
                    <path d="M 6.599999 -53.999971 L 1048.200097 -53.999971 L 1048.200097 500.399992 L 6.599999 500.399992 Z"/>
                </clipPath>
                <path id="path6" fill="#f2a65a" stroke="#ffffff" stroke-width="1.333333" clip-path="url(#clipPath5)" d="M 127.425598 241.679993 L 161.277603 241.679993 L 161.277603 195.480011 L 127.425598 195.480011 Z"/>
            </g>
            <g id="patch8">
                <clipPath id="clipPath6">
                    <path d="M 6.599999 -53.999971 L 1048.200097 -53.999971 L 1048.200097 500.399992 L 6.599999 500.399992 Z"/>
                </clipPath>
                <path id="path7" fill="#f4d06f" stroke="#ffffff" stroke-width="1.333333" clip-path="url(#clipPath6)" d="M 164.923203 241.679993 L 198.775208 241.679993 L 198.775208 195.480011 L 164.923203 195.480011 Z"/>
            </g>
            <g id="patch9">
                <clipPath id="clipPath7">
                    <path d="M 6.599999 -53.999971 L 1048.200097 -53.999971 L 1048.200097 500.399992 L 6.599999 500.399992 Z"/>
                </clipPath>
                <path id="path8" fill="none" stroke="#cfcfcf" stroke-width="1.333333" stroke-dasharray="3.7 1.6" stroke-dashoffset="0" clip-path="url(#clipPath7)" d="M 202.420792 241.679993 L 236.272812 241.679993 L 236.272812 195.480011 L 202.420792 195.480011 L 202.420792 241.679993 Z"/>
            </g>
            <g id="patch10">
                <clipPath id="clipPath8">
                    <path d="M 6.599999 -53.999971 L 1048.200097 -53.999971 L 1048.200097 500.399992 L 6.599999 500.399992 Z"/>
                </clipPath>
                <path id="path9" fill="#e45756" stroke="#ffffff" stroke-width="1.333333" clip-path="url(#clipPath8)" d="M 89.928001 315.599976 L 123.779999 315.599976 L 123.779999 269.399994 L 89.928001 269.399994 Z"/>
            </g>
            <g id="patch11">
                <clipPath id="clipPath9">
                    <path d="M 6.599999 -53.999971 L 1048.200097 -53.999971 L 1048.200097 500.399992 L 6.599999 500.399992 Z"/>
                </clipPath>
                <path id="path10" fill="#f2a65a" stroke="#ffffff" stroke-width="1.333333" clip-path="url(#clipPath9)" d="M 127.425598 315.599976 L 161.277603 315.599976 L 161.277603 269.399994 L 127.425598 269.399994 Z"/>
            </g>
            <g id="patch12">
                <clipPath id="clipPath10">
                    <path d="M 6.599999 -53.999971 L 1048.200097 -53.999971 L 1048.200097 500.399992 L 6.599999 500.399992 Z"/>
                </clipPath>
                <path id="path11" fill="#f4d06f" stroke="#ffffff" stroke-width="1.333333" clip-path="url(#clipPath10)" d="M 164.923203 315.599976 L 198.775208 315.599976 L 198.775208 269.399994 L 164.923203 269.399994 Z"/>
            </g>
            <g id="patch13">
                <clipPath id="clipPath11">
                    <path d="M 6.599999 -53.999971 L 1048.200097 -53.999971 L 1048.200097 500.399992 L 6.599999 500.399992 Z"/>
                </clipPath>
                <path id="path12" fill="#7fb069" stroke="#ffffff" stroke-width="1.333333" clip-path="url(#clipPath11)" d="M 202.420792 315.599976 L 236.272812 315.599976 L 236.272812 269.399994 L 202.420792 269.399994 Z"/>
            </g>
            <g id="patch14">
                <clipPath id="clipPath12">
                    <path d="M 6.599999 -53.999971 L 1048.200097 -53.999971 L 1048.200097 500.399992 L 6.599999 500.399992 Z"/>
                </clipPath>
                <path id="path13" fill="#4d9de0" stroke="#ffffff" stroke-width="1.333333" clip-path="url(#clipPath12)" d="M 239.918396 315.599976 L 273.770416 315.599976 L 273.770416 269.399994 L 239.918396 269.399994 Z"/>
            </g>
            <g id="patch15">
                <clipPath id="clipPath13">
                    <path d="M 6.599999 -53.999971 L 1048.200097 -53.999971 L 1048.200097 500.399992 L 6.599999 500.399992 Z"/>
                </clipPath>
                <path id="path14" fill="none" stroke="#cfcfcf" stroke-width="1.333333" stroke-dasharray="3.7 1.6" stroke-dashoffset="0" clip-path="url(#clipPath13)" d="M 277.415985 315.599976 L 311.268005 315.599976 L 311.268005 269.399994 L 277.415985 269.399994 L 277.415985 315.599976 Z"/>
            </g>
            <g id="patch16">
                <clipPath id="clipPath14">
                    <path d="M 6.599999 -53.999971 L 1048.200097 -53.999971 L 1048.200097 500.399992 L 6.599999 500.399992 Z"/>
                </clipPath>
                <path id="path15" fill="#e45756" stroke="#ffffff" stroke-width="1.333333" clip-path="url(#clipPath14)" d="M 89.928001 389.519989 L 123.779999 389.519989 L 123.779999 343.320007 L 89.928001 343.320007 Z"/>
            </g>
            <g id="patch17">
                <clipPath id="clipPath15">
                    <path d="M 6.599999 -53.999971 L 1048.200097 -53.999971 L 1048.200097 500.399992 L 6.599999 500.399992 Z"/>
                </clipPath>
                <path id="path16" fill="#f2a65a" stroke="#ffffff" stroke-width="1.333333" clip-path="url(#clipPath15)" d="M 127.425598 389.519989 L 161.277603 389.519989 L 161.277603 343.320007 L 127.425598 343.320007 Z"/>
            </g>
            <g id="patch18">
                <clipPath id="clipPath16">
                    <path d="M 6.599999 -53.999971 L 1048.200097 -53.999971 L 1048.200097 500.399992 L 6.599999 500.399992 Z"/>
                </clipPath>
                <path id="path17" fill="#f4d06f" stroke="#ffffff" stroke-width="1.333333" clip-path="url(#clipPath16)" d="M 164.923203 389.519989 L 198.775208 389.519989 L 198.775208 343.320007 L 164.923203 343.320007 Z"/>
            </g>
            <g id="patch19">
                <clipPath id="clipPath17">
                    <path d="M 6.599999 -53.999971 L 1048.200097 -53.999971 L 1048.200097 500.399992 L 6.599999 500.399992 Z"/>
                </clipPath>
                <path id="path18" fill="#7fb069" stroke="#ffffff" stroke-width="1.333333" clip-path="url(#clipPath17)" d="M 202.420792 389.519989 L 236.272812 389.519989 L 236.272812 343.320007 L 202.420792 343.320007 Z"/>
            </g>
            <g id="patch20">
                <clipPath id="clipPath18">
                    <path d="M 6.599999 -53.999971 L 1048.200097 -53.999971 L 1048.200097 500.399992 L 6.599999 500.399992 Z"/>
                </clipPath>
                <path id="path19" fill="#4d9de0" stroke="#ffffff" stroke-width="1.333333" clip-path="url(#clipPath18)" d="M 239.918396 389.519989 L 273.770416 389.519989 L 273.770416 343.320007 L 239.918396 343.320007 Z"/>
            </g>
            <g id="patch21">
                <clipPath id="clipPath19">
                    <path d="M 6.599999 -53.999971 L 1048.200097 -53.999971 L 1048.200097 500.399992 L 6.599999 500.399992 Z"/>
                </clipPath>
                <path id="path20" fill="#845ec2" stroke="#ffffff" stroke-width="1.333333" clip-path="url(#clipPath19)" d="M 277.415985 389.519989 L 311.268005 389.519989 L 311.268005 343.320007 L 277.415985 343.320007 Z"/>
            </g>
            <g id="patch22">
                <clipPath id="clipPath20">
                    <path d="M 6.599999 -53.999971 L 1048.200097 -53.999971 L 1048.200097 500.399992 L 6.599999 500.399992 Z"/>
                </clipPath>
                <path id="path21" fill="#c9c9c9" stroke="#ffffff" stroke-width="1.333333" clip-path="url(#clipPath20)" d="M 314.913605 389.519989 L 348.765594 389.519989 L 348.765594 343.320007 L 314.913605 343.320007 Z"/>
            </g>
            <g id="patch23">
                <clipPath id="clipPath21">
                    <path d="M 6.599999 -53.999971 L 1048.200097 -53.999971 L 1048.200097 500.399992 L 6.599999 500.399992 Z"/>
                </clipPath>
                <path id="path22" fill="none" stroke="#cfcfcf" stroke-width="1.333333" stroke-dasharray="3.7 1.6" stroke-dashoffset="0" clip-path="url(#clipPath21)" d="M 352.411224 389.519989 L 386.263184 389.519989 L 386.263184 343.320007 L 352.411224 343.320007 L 352.411224 389.519989 Z"/>
            </g>
            <g id="patch26">
                <clipPath id="clipPath22">
                    <path d="M -45.400001 20.000029 L 996.200097 20.000029 L 996.200097 574.399992 L -45.400001 574.399992 Z"/>
                </clipPath>
                <path id="path23" fill="#e45756" stroke="#ffffff" stroke-width="1.333333" clip-path="url(#clipPath22)" d="M 579.559998 306.440002 L 613.411987 306.440002 L 613.411987 260.23999 L 579.559998 260.23999 Z"/>
            </g>
            <g id="patch27">
                <clipPath id="clipPath23">
                    <path d="M -45.400001 20.000029 L 996.200097 20.000029 L 996.200097 574.399992 L -45.400001 574.399992 Z"/>
                </clipPath>
                <path id="path24" fill="#f2a65a" stroke="#ffffff" stroke-width="1.333333" clip-path="url(#clipPath23)" d="M 617.057617 306.440002 L 650.909607 306.440002 L 650.909607 260.23999 L 617.057617 260.23999 Z"/>
            </g>
            <g id="patch28">
                <clipPath id="clipPath24">
                    <path d="M -45.400001 20.000029 L 996.200097 20.000029 L 996.200097 574.399992 L -45.400001 574.399992 Z"/>
                </clipPath>
                <path id="path25" fill="#f4d06f" stroke="#ffffff" stroke-width="1.333333" clip-path="url(#clipPath24)" d="M 654.555176 306.440002 L 688.407227 306.440002 L 688.407227 260.23999 L 654.555176 260.23999 Z"/>
            </g>
            <g id="patch29">
                <clipPath id="clipPath25">
                    <path d="M -45.400001 20.000029 L 996.200097 20.000029 L 996.200097 574.399992 L -45.400001 574.399992 Z"/>
                </clipPath>
                <path id="path26" fill="#7fb069" stroke="#ffffff" stroke-width="1.333333" opacity="0.25" clip-path="url(#clipPath25)" d="M 692.052795 306.440002 L 725.904785 306.440002 L 725.904785 260.23999 L 692.052795 260.23999 Z"/>
            </g>
            <g id="patch30">
                <clipPath id="clipPath26">
                    <path d="M -45.400001 20.000029 L 996.200097 20.000029 L 996.200097 574.399992 L -45.400001 574.399992 Z"/>
                </clipPath>
                <path id="path27" fill="#4d9de0" stroke="#ffffff" stroke-width="1.333333" opacity="0.25" clip-path="url(#clipPath26)" d="M 729.550354 306.440002 L 763.402405 306.440002 L 763.402405 260.23999 L 729.550354 260.23999 Z"/>
            </g>
            <g id="patch31">
                <clipPath id="clipPath27">
                    <path d="M -45.400001 20.000029 L 996.200097 20.000029 L 996.200097 574.399992 L -45.400001 574.399992 Z"/>
                </clipPath>
                <path id="path28" fill="#845ec2" stroke="#ffffff" stroke-width="1.333333" opacity="0.25" clip-path="url(#clipPath27)" d="M 767.048035 306.440002 L 800.899963 306.440002 L 800.899963 260.23999 L 767.048035 260.23999 Z"/>
            </g>
            <g id="patch32">
                <clipPath id="clipPath28">
                    <path d="M -45.400001 20.000029 L 996.200097 20.000029 L 996.200097 574.399992 L -45.400001 574.399992 Z"/>
                </clipPath>
                <path id="path29" fill="#c9c9c9" stroke="#ffffff" stroke-width="1.333333" opacity="0.25" clip-path="url(#clipPath28)" d="M 804.545593 306.440002 L 838.397644 306.440002 L 838.397644 260.23999 L 804.545593 260.23999 Z"/>
            </g>
            <g id="patch33">
                <clipPath id="clipPath29">
                    <path d="M -45.400001 20.000029 L 996.200097 20.000029 L 996.200097 574.399992 L -45.400001 574.399992 Z"/>
                </clipPath>
                <path id="path30" fill="none" stroke="#888888" stroke-width="1.2" stroke-linecap="round" stroke-linejoin="round" clip-path="url(#clipPath29)" d="M 712.727478 326.768005 C 747.553324 326.768005 782.379171 326.768005 817.205017 326.768005"/>
                <clipPath id="clipPath30">
                    <path d="M -45.400001 20.000029 L 996.200097 20.000029 L 996.200097 574.399992 L -45.400001 574.399992 Z"/>
                </clipPath>
                <path id="path31" fill="none" stroke="#888888" stroke-width="1.2" stroke-linecap="round" stroke-linejoin="round" clip-path="url(#clipPath30)" d="M 718.060791 329.434662 L 712.727478 326.768005 L 718.060791 324.101318"/>
                <clipPath id="clipPath31">
                    <path d="M -45.400001 20.000029 L 996.200097 20.000029 L 996.200097 574.399992 L -45.400001 574.399992 Z"/>
                </clipPath>
                <path id="path32" fill="none" stroke="#888888" stroke-width="1.2" stroke-linecap="round" stroke-linejoin="round" clip-path="url(#clipPath31)" d="M 811.871643 324.101318 L 817.205017 326.768005 L 811.871643 329.434662"/>
            </g>
            <g id="line2d1">
                <clipPath id="clipPath32">
                    <path d="M -146.631091 -22.504433 L 1048.30964 -22.504433 L 1048.30964 613.512306 L -146.631091 613.512306 Z"/>
                </clipPath>
                <path id="path33" fill="none" stroke="#777777" stroke-width="1.835546" stroke-linecap="square" stroke-linejoin="round" clip-path="url(#clipPath32)" d="M 579.892761 168.451996 L 622.910645 175.115051 L 665.928528 188.441101 L 708.94635 205.931564 L 751.964294 212.594589 L 794.982117 216.758987 L 838 220.0905"/>
            </g>
            <g id="LineCollection1">
                <clipPath id="clipPath33">
                    <path d="M -130.112345 -7.281394 L 1041.596084 -6.757799 L 1041.317396 616.893362 L -130.391033 616.369767 Z"/>
                </clipPath>
                <path id="path34" fill="none" stroke="#bbbbbb" stroke-width="1.2" stroke-linejoin="round" stroke-dasharray="3.33 1.44" stroke-dashoffset="0" clip-path="url(#clipPath33)" d="M 570.476807 199.876007 L 847 199.999573"/>
            </g>
            <g id="text1">
                <text id="Adaptive-Draft-Length" xml:space="preserve" x="93" y="82" font-family="Space Grotesk" font-size="16" font-weight="700" fill="#ffffff">Adaptive Draft Length</text>
            </g>
            <g id="text2">
                <text id="Dynamic-K-per-step" xml:space="preserve" x="93" y="101" font-family="Space Grotesk" font-size="14" fill="#ffffff">Dynamic K per step from recent acceptance</text>
            </g>
            <g id="text4">
                <text id="low-acceptance--smaller" xml:space="preserve" x="213" y="152" font-family="Space Grotesk" font-size="14" fill="#ffffff">low acceptance → smaller K</text>
            </g>
            <g id="text6">
                <text id="moderate--K3" xml:space="preserve" x="243" y="225" font-family="Space Grotesk" font-size="14" fill="#ffffff">moderate → K=3</text>
            </g>
            <g id="text8">
                <text id="good--K5" xml:space="preserve" x="325" y="299" font-family="Space Grotesk" font-size="14" fill="#ffffff">good → K=5</text>
            </g>
            <g id="text10">
                <text id="high--K7" xml:space="preserve" x="398" y="371" font-family="Space Grotesk" font-size="14" fill="#ffffff">high → K=7</text>
            </g>
            <g id="text13">
                <text id="ConfidenceBased-Early-Exit" xml:space="preserve" x="573" y="82" font-family="Space Grotesk" font-size="16" font-weight="700" fill="#ffffff">Confidence‑Based Early Exit</text>
            </g>
            <g id="text14">
                <text id="Skip-KV-writes-when" xml:space="preserve" x="573" y="101" font-family="Space Grotesk" font-size="14" fill="#ffffff">Skip KV writes when draft confidence drops</text>
            </g>
            <g id="text15">
                <text id="drafted-tokens" xml:space="preserve" x="583" y="252" font-family="Space Grotesk" font-size="14" fill="#ffffff">drafted tokens</text>
            </g>
            <g id="text16">
                <text id="confidence-threshold" xml:space="preserve"><tspan x="850" y="196" font-family="Space Grotesk" font-size="14" fill="#ffffff" xml:space="preserve">confidence</tspan><tspan x="850" y="214" font-family="Space Grotesk" font-size="14" fill="#ffffff" xml:space="preserve">threshold</tspan></text>
            </g>
            <clipPath id="clipPath34">
                <path clip-rule="evenodd" d="M -73 584 L 987 584 L 987 -68 L -73 -68 Z"/>
            </clipPath>
            <g id="text17" clip-path="url(#clipPath34)">
                <text id="KV-writes-gated" xml:space="preserve" x="702.382635" y="347" font-family="Space Grotesk" font-size="16" fill="#ffffff">KV writes gated</text>
            </g>
        </g>
        <g id="text20"/>
    </g>
</svg>
