<svg width="100%" viewBox="-20 0 700 430" xmlns="http://www.w3.org/2000/svg">
<style>
:root {
  --p: #e8e8e8; --s: #b0b0b0; --t: #888888; --bg2: #2a2a2a; --b: #404040;
  --font-sans: system-ui, -apple-system, sans-serif;
}
text { font-family: var(--font-sans); }
.th { font-size: 14px; font-weight: 500; fill: var(--p); }
.ts { font-size: 12px; font-weight: 400; fill: var(--s); }
</style>

<text class="th" x="54" y="72" text-anchor="end" dominant-baseline="central" fill="#E8734A">&#947; gamma</text>
<text class="ts" x="54" y="90" text-anchor="end" dominant-baseline="central" opacity="0.7">30&#8211;100 Hz</text>

<text class="th" x="54" y="202" text-anchor="end" dominant-baseline="central" fill="#9B93EE">&#946; beta</text>
<text class="ts" x="54" y="220" text-anchor="end" dominant-baseline="central" opacity="0.7">13&#8211;30 Hz</text>

<text class="th" x="54" y="332" text-anchor="end" dominant-baseline="central" fill="#5AA0EE">&#952; theta</text>
<text class="ts" x="54" y="350" text-anchor="end" dominant-baseline="central" opacity="0.7">4&#8211;8 Hz</text>

<rect x="70" y="36" width="540" height="108" rx="6" fill="var(--bg2)" opacity="0.3"/>
<rect x="70" y="166" width="540" height="108" rx="6" fill="var(--bg2)" opacity="0.3"/>
<rect x="70" y="296" width="540" height="108" rx="6" fill="var(--bg2)" opacity="0.3"/>

<!-- Coupling regions: all three waves peak at x=210 and x=490 -->
<rect x="200" y="36" width="20" height="368" rx="3" fill="#EF9F27" opacity="0.18"/>
<line x1="210" y1="36" x2="210" y2="404" stroke="#EF9F27" stroke-width="0.8" stroke-dasharray="3 4" opacity="0.5"/>

<rect x="480" y="36" width="20" height="368" rx="3" fill="#EF9F27" opacity="0.18"/>
<line x1="490" y1="36" x2="490" y2="404" stroke="#EF9F27" stroke-width="0.8" stroke-dasharray="3 4" opacity="0.5"/>

<!-- Short wave: λ=40px, peaks at 210 and 490 (7 full cycles between) -->
<path d="M70 106.0 L71.5 105.34 L73.0 103.38 L74.5 100.25 L76.0 96.11 L77.5 91.18 L79.0 85.75 L80.5 80.12 L82.0 74.58 L83.5 69.46 L85.0 65.03 L86.5 61.54 L88.0 59.17 L89.5 58.07 L91.0 58.3 L92.5 59.83 L94.0 62.58 L95.5 66.41 L97.0 71.1 L98.5 76.4 L100.0 82.0 L101.5 87.6 L103.0 92.9 L104.5 97.59 L106.0 101.42 L107.5 104.17 L109.0 105.7 L110.5 105.93 L112.0 104.83 L113.5 102.46 L115.0 98.97 L116.5 94.54 L118.0 89.42 L119.5 83.88 L121.0 78.25 L122.5 72.82 L124.0 67.89 L125.5 63.75 L127.0 60.62 L128.5 58.66 L130.0 58.0 L131.5 58.66 L133.0 60.62 L134.5 63.75 L136.0 67.89 L137.5 72.82 L139.0 78.25 L140.5 83.88 L142.0 89.42 L143.5 94.54 L145.0 98.97 L146.5 102.46 L148.0 104.83 L149.5 105.93 L151.0 105.7 L152.5 104.17 L154.0 101.42 L155.5 97.59 L157.0 92.9 L158.5 87.6 L160.0 82.0 L161.5 76.4 L163.0 71.1 L164.5 66.41 L166.0 62.58 L167.5 59.83 L169.0 58.3 L170.5 58.07 L172.0 59.17 L173.5 61.54 L175.0 65.03 L176.5 69.46 L178.0 74.58 L179.5 80.12 L181.0 85.75 L182.5 91.18 L184.0 96.11 L185.5 100.25 L187.0 103.38 L188.5 105.34 L190.0 106.0 L191.5 105.34 L193.0 103.38 L194.5 100.25 L196.0 96.11 L197.5 91.18 L199.0 85.75 L200.5 80.12 L202.0 74.58 L203.5 69.46 L205.0 65.03 L206.5 61.54 L208.0 59.17 L209.5 58.07 L211.0 58.3 L212.5 59.83 L214.0 62.58 L215.5 66.41 L217.0 71.1 L218.5 76.4 L220.0 82.0 L221.5 87.6 L223.0 92.9 L224.5 97.59 L226.0 101.42 L227.5 104.17 L229.0 105.7 L230.5 105.93 L232.0 104.83 L233.5 102.46 L235.0 98.97 L236.5 94.54 L238.0 89.42 L239.5 83.88 L241.0 78.25 L242.5 72.82 L244.0 67.89 L245.5 63.75 L247.0 60.62 L248.5 58.66 L250.0 58.0 L251.5 58.66 L253.0 60.62 L254.5 63.75 L256.0 67.89 L257.5 72.82 L259.0 78.25 L260.5 83.88 L262.0 89.42 L263.5 94.54 L265.0 98.97 L266.5 102.46 L268.0 104.83 L269.5 105.93 L271.0 105.7 L272.5 104.17 L274.0 101.42 L275.5 97.59 L277.0 92.9 L278.5 87.6 L280.0 82.0 L281.5 76.4 L283.0 71.1 L284.5 66.41 L286.0 62.58 L287.5 59.83 L289.0 58.3 L290.5 58.07 L292.0 59.17 L293.5 61.54 L295.0 65.03 L296.5 69.46 L298.0 74.58 L299.5 80.12 L301.0 85.75 L302.5 91.18 L304.0 96.11 L305.5 100.25 L307.0 103.38 L308.5 105.34 L310.0 106.0 L311.5 105.34 L313.0 103.38 L314.5 100.25 L316.0 96.11 L317.5 91.18 L319.0 85.75 L320.5 80.12 L322.0 74.58 L323.5 69.46 L325.0 65.03 L326.5 61.54 L328.0 59.17 L329.5 58.07 L331.0 58.3 L332.5 59.83 L334.0 62.58 L335.5 66.41 L337.0 71.1 L338.5 76.4 L340.0 82.0 L341.5 87.6 L343.0 92.9 L344.5 97.59 L346.0 101.42 L347.5 104.17 L349.0 105.7 L350.5 105.93 L352.0 104.83 L353.5 102.46 L355.0 98.97 L356.5 94.54 L358.0 89.42 L359.5 83.88 L361.0 78.25 L362.5 72.82 L364.0 67.89 L365.5 63.75 L367.0 60.62 L368.5 58.66 L370.0 58.0 L371.5 58.66 L373.0 60.62 L374.5 63.75 L376.0 67.89 L377.5 72.82 L379.0 78.25 L380.5 83.88 L382.0 89.42 L383.5 94.54 L385.0 98.97 L386.5 102.46 L388.0 104.83 L389.5 105.93 L391.0 105.7 L392.5 104.17 L394.0 101.42 L395.5 97.59 L397.0 92.9 L398.5 87.6 L400.0 82.0 L401.5 76.4 L403.0 71.1 L404.5 66.41 L406.0 62.58 L407.5 59.83 L409.0 58.3 L410.5 58.07 L412.0 59.17 L413.5 61.54 L415.0 65.03 L416.5 69.46 L418.0 74.58 L419.5 80.12 L421.0 85.75 L422.5 91.18 L424.0 96.11 L425.5 100.25 L427.0 103.38 L428.5 105.34 L430.0 106.0 L431.5 105.34 L433.0 103.38 L434.5 100.25 L436.0 96.11 L437.5 91.18 L439.0 85.75 L440.5 80.12 L442.0 74.58 L443.5 69.46 L445.0 65.03 L446.5 61.54 L448.0 59.17 L449.5 58.07 L451.0 58.3 L452.5 59.83 L454.0 62.58 L455.5 66.41 L457.0 71.1 L458.5 76.4 L460.0 82.0 L461.5 87.6 L463.0 92.9 L464.5 97.59 L466.0 101.42 L467.5 104.17 L469.0 105.7 L470.5 105.93 L472.0 104.83 L473.5 102.46 L475.0 98.97 L476.5 94.54 L478.0 89.42 L479.5 83.88 L481.0 78.25 L482.5 72.82 L484.0 67.89 L485.5 63.75 L487.0 60.62 L488.5 58.66 L490.0 58.0 L491.5 58.66 L493.0 60.62 L494.5 63.75 L496.0 67.89 L497.5 72.82 L499.0 78.25 L500.5 83.88 L502.0 89.42 L503.5 94.54 L505.0 98.97 L506.5 102.46 L508.0 104.83 L509.5 105.93 L511.0 105.7 L512.5 104.17 L514.0 101.42 L515.5 97.59 L517.0 92.9 L518.5 87.6 L520.0 82.0 L521.5 76.4 L523.0 71.1 L524.5 66.41 L526.0 62.58 L527.5 59.83 L529.0 58.3 L530.5 58.07 L532.0 59.17 L533.5 61.54 L535.0 65.03 L536.5 69.46 L538.0 74.58 L539.5 80.12 L541.0 85.75 L542.5 91.18 L544.0 96.11 L545.5 100.25 L547.0 103.38 L548.5 105.34 L550.0 106.0 L551.5 105.34 L553.0 103.38 L554.5 100.25 L556.0 96.11 L557.5 91.18 L559.0 85.75 L560.5 80.12 L562.0 74.58 L563.5 69.46 L565.0 65.03 L566.5 61.54 L568.0 59.17 L569.5 58.07 L571.0 58.3 L572.5 59.83 L574.0 62.58 L575.5 66.41 L577.0 71.1 L578.5 76.4 L580.0 82.0 L581.5 87.6 L583.0 92.9 L584.5 97.59 L586.0 101.42 L587.5 104.17 L589.0 105.7 L590.5 105.93 L592.0 104.83 L593.5 102.46 L595.0 98.97 L596.5 94.54 L598.0 89.42 L599.5 83.88 L601.0 78.25 L602.5 72.82 L604.0 67.89 L605.5 63.75 L607.0 60.62 L608.5 58.66 L610.0 58.0" fill="none" stroke="#E8734A" stroke-width="2.5" opacity="0.9" stroke-linejoin="round"/>

<!-- Medium wave: λ=70px, peaks at 210 and 490 (4 full cycles between) -->
<path d="M70 176.0 L71.5 176.33 L73.0 177.3 L74.5 178.9 L76.0 181.1 L77.5 183.85 L79.0 187.12 L80.5 190.84 L82.0 194.94 L83.5 199.35 L85.0 203.99 L86.5 208.77 L88.0 213.62 L89.5 218.43 L91.0 223.12 L92.5 227.62 L94.0 231.83 L95.5 235.69 L97.0 239.11 L98.5 242.04 L100.0 244.43 L101.5 246.24 L103.0 247.42 L104.5 247.96 L106.0 247.86 L107.5 247.1 L109.0 245.7 L110.5 243.7 L112.0 241.12 L113.5 238.02 L115.0 234.45 L116.5 230.46 L118.0 226.15 L119.5 221.58 L121.0 216.83 L122.5 212.0 L124.0 207.17 L125.5 202.42 L127.0 197.85 L128.5 193.54 L130.0 189.55 L131.5 185.98 L133.0 182.88 L134.5 180.3 L136.0 178.3 L137.5 176.9 L139.0 176.14 L140.5 176.04 L142.0 176.58 L143.5 177.76 L145.0 179.57 L146.5 181.96 L148.0 184.89 L149.5 188.31 L151.0 192.17 L152.5 196.38 L154.0 200.88 L155.5 205.57 L157.0 210.38 L158.5 215.23 L160.0 220.01 L161.5 224.65 L163.0 229.06 L164.5 233.16 L166.0 236.88 L167.5 240.15 L169.0 242.9 L170.5 245.1 L172.0 246.7 L173.5 247.67 L175.0 248.0 L176.5 247.67 L178.0 246.7 L179.5 245.1 L181.0 242.9 L182.5 240.15 L184.0 236.88 L185.5 233.16 L187.0 229.06 L188.5 224.65 L190.0 220.01 L191.5 215.23 L193.0 210.38 L194.5 205.57 L196.0 200.88 L197.5 196.38 L199.0 192.17 L200.5 188.31 L202.0 184.89 L203.5 181.96 L205.0 179.57 L206.5 177.76 L208.0 176.58 L209.5 176.04 L211.0 176.14 L212.5 176.9 L214.0 178.3 L215.5 180.3 L217.0 182.88 L218.5 185.98 L220.0 189.55 L221.5 193.54 L223.0 197.85 L224.5 202.42 L226.0 207.17 L227.5 212.0 L229.0 216.83 L230.5 221.58 L232.0 226.15 L233.5 230.46 L235.0 234.45 L236.5 238.02 L238.0 241.12 L239.5 243.7 L241.0 245.7 L242.5 247.1 L244.0 247.86 L245.5 247.96 L247.0 247.42 L248.5 246.24 L250.0 244.43 L251.5 242.04 L253.0 239.11 L254.5 235.69 L256.0 231.83 L257.5 227.62 L259.0 223.12 L260.5 218.43 L262.0 213.62 L263.5 208.77 L265.0 203.99 L266.5 199.35 L268.0 194.94 L269.5 190.84 L271.0 187.12 L272.5 183.85 L274.0 181.1 L275.5 178.9 L277.0 177.3 L278.5 176.33 L280.0 176.0 L281.5 176.33 L283.0 177.3 L284.5 178.9 L286.0 181.1 L287.5 183.85 L289.0 187.12 L290.5 190.84 L292.0 194.94 L293.5 199.35 L295.0 203.99 L296.5 208.77 L298.0 213.62 L299.5 218.43 L301.0 223.12 L302.5 227.62 L304.0 231.83 L305.5 235.69 L307.0 239.11 L308.5 242.04 L310.0 244.43 L311.5 246.24 L313.0 247.42 L314.5 247.96 L316.0 247.86 L317.5 247.1 L319.0 245.7 L320.5 243.7 L322.0 241.12 L323.5 238.02 L325.0 234.45 L326.5 230.46 L328.0 226.15 L329.5 221.58 L331.0 216.83 L332.5 212.0 L334.0 207.17 L335.5 202.42 L337.0 197.85 L338.5 193.54 L340.0 189.55 L341.5 185.98 L343.0 182.88 L344.5 180.3 L346.0 178.3 L347.5 176.9 L349.0 176.14 L350.5 176.04 L352.0 176.58 L353.5 177.76 L355.0 179.57 L356.5 181.96 L358.0 184.89 L359.5 188.31 L361.0 192.17 L362.5 196.38 L364.0 200.88 L365.5 205.57 L367.0 210.38 L368.5 215.23 L370.0 220.01 L371.5 224.65 L373.0 229.06 L374.5 233.16 L376.0 236.88 L377.5 240.15 L379.0 242.9 L380.5 245.1 L382.0 246.7 L383.5 247.67 L385.0 248.0 L386.5 247.67 L388.0 246.7 L389.5 245.1 L391.0 242.9 L392.5 240.15 L394.0 236.88 L395.5 233.16 L397.0 229.06 L398.5 224.65 L400.0 220.01 L401.5 215.23 L403.0 210.38 L404.5 205.57 L406.0 200.88 L407.5 196.38 L409.0 192.17 L410.5 188.31 L412.0 184.89 L413.5 181.96 L415.0 179.57 L416.5 177.76 L418.0 176.58 L419.5 176.04 L421.0 176.14 L422.5 176.9 L424.0 178.3 L425.5 180.3 L427.0 182.88 L428.5 185.98 L430.0 189.55 L431.5 193.54 L433.0 197.85 L434.5 202.42 L436.0 207.17 L437.5 212.0 L439.0 216.83 L440.5 221.58 L442.0 226.15 L443.5 230.46 L445.0 234.45 L446.5 238.02 L448.0 241.12 L449.5 243.7 L451.0 245.7 L452.5 247.1 L454.0 247.86 L455.5 247.96 L457.0 247.42 L458.5 246.24 L460.0 244.43 L461.5 242.04 L463.0 239.11 L464.5 235.69 L466.0 231.83 L467.5 227.62 L469.0 223.12 L470.5 218.43 L472.0 213.62 L473.5 208.77 L475.0 203.99 L476.5 199.35 L478.0 194.94 L479.5 190.84 L481.0 187.12 L482.5 183.85 L484.0 181.1 L485.5 178.9 L487.0 177.3 L488.5 176.33 L490.0 176.0 L491.5 176.33 L493.0 177.3 L494.5 178.9 L496.0 181.1 L497.5 183.85 L499.0 187.12 L500.5 190.84 L502.0 194.94 L503.5 199.35 L505.0 203.99 L506.5 208.77 L508.0 213.62 L509.5 218.43 L511.0 223.12 L512.5 227.62 L514.0 231.83 L515.5 235.69 L517.0 239.11 L518.5 242.04 L520.0 244.43 L521.5 246.24 L523.0 247.42 L524.5 247.96 L526.0 247.86 L527.5 247.1 L529.0 245.7 L530.5 243.7 L532.0 241.12 L533.5 238.02 L535.0 234.45 L536.5 230.46 L538.0 226.15 L539.5 221.58 L541.0 216.83 L542.5 212.0 L544.0 207.17 L545.5 202.42 L547.0 197.85 L548.5 193.54 L550.0 189.55 L551.5 185.98 L553.0 182.88 L554.5 180.3 L556.0 178.3 L557.5 176.9 L559.0 176.14 L560.5 176.04 L562.0 176.58 L563.5 177.76 L565.0 179.57 L566.5 181.96 L568.0 184.89 L569.5 188.31 L571.0 192.17 L572.5 196.38 L574.0 200.88 L575.5 205.57 L577.0 210.38 L578.5 215.23 L580.0 220.01 L581.5 224.65 L583.0 229.06 L584.5 233.16 L586.0 236.88 L587.5 240.15 L589.0 242.9 L590.5 245.1 L592.0 246.7 L593.5 247.67 L595.0 248.0 L596.5 247.67 L598.0 246.7 L599.5 245.1 L601.0 242.9 L602.5 240.15 L604.0 236.88 L605.5 233.16 L607.0 229.06 L608.5 224.65 L610.0 220.01" fill="none" stroke="#9B93EE" stroke-width="2.5" opacity="0.9" stroke-linejoin="round"/>

<!-- Long wave: λ=280px, peaks at 210 and 490 (1 full cycle between) -->
<path d="M70 390.0 L71.5 389.97 L73.0 389.89 L74.5 389.76 L76.0 389.57 L77.5 389.32 L79.0 389.02 L80.5 388.67 L82.0 388.27 L83.5 387.81 L85.0 387.31 L86.5 386.75 L88.0 386.14 L89.5 385.48 L91.0 384.77 L92.5 384.01 L94.0 383.21 L95.5 382.35 L97.0 381.46 L98.5 380.51 L100.0 379.53 L101.5 378.5 L103.0 377.43 L104.5 376.32 L106.0 375.17 L107.5 373.98 L109.0 372.76 L110.5 371.5 L112.0 370.21 L113.5 368.89 L115.0 367.54 L116.5 366.16 L118.0 364.75 L119.5 363.31 L121.0 361.85 L122.5 360.37 L124.0 358.87 L125.5 357.34 L127.0 355.8 L128.5 354.25 L130.0 352.68 L131.5 351.1 L133.0 349.51 L134.5 347.91 L136.0 346.3 L137.5 344.69 L139.0 343.08 L140.5 341.46 L142.0 339.85 L143.5 338.23 L145.0 336.63 L146.5 335.02 L148.0 333.43 L149.5 331.84 L151.0 330.27 L152.5 328.71 L154.0 327.17 L155.5 325.64 L157.0 324.13 L158.5 322.64 L160.0 321.17 L161.5 319.73 L163.0 318.31 L164.5 316.92 L166.0 315.56 L167.5 314.22 L169.0 312.92 L170.5 311.65 L172.0 310.42 L173.5 309.22 L175.0 308.06 L176.5 306.94 L178.0 305.85 L179.5 304.81 L181.0 303.81 L182.5 302.85 L184.0 301.94 L185.5 301.07 L187.0 300.25 L188.5 299.48 L190.0 298.75 L191.5 298.08 L193.0 297.45 L194.5 296.87 L196.0 296.35 L197.5 295.88 L199.0 295.45 L200.5 295.09 L202.0 294.77 L203.5 294.51 L205.0 294.3 L206.5 294.15 L208.0 294.05 L209.5 294.0 L211.0 294.01 L212.5 294.08 L214.0 294.19 L215.5 294.37 L217.0 294.59 L218.5 294.87 L220.0 295.2 L221.5 295.59 L223.0 296.03 L224.5 296.52 L226.0 297.06 L227.5 297.65 L229.0 298.3 L230.5 298.99 L232.0 299.73 L233.5 300.52 L235.0 301.36 L236.5 302.24 L238.0 303.17 L239.5 304.14 L241.0 305.15 L242.5 306.21 L244.0 307.31 L245.5 308.44 L247.0 309.62 L248.5 310.83 L250.0 312.07 L251.5 313.35 L253.0 314.66 L254.5 316.01 L256.0 317.38 L257.5 318.78 L259.0 320.21 L260.5 321.66 L262.0 323.13 L263.5 324.63 L265.0 326.15 L266.5 327.68 L268.0 329.23 L269.5 330.79 L271.0 332.37 L272.5 333.96 L274.0 335.56 L275.5 337.16 L277.0 338.77 L278.5 340.38 L280.0 342.0 L281.5 343.62 L283.0 345.23 L284.5 346.84 L286.0 348.44 L287.5 350.04 L289.0 351.63 L290.5 353.21 L292.0 354.77 L293.5 356.32 L295.0 357.85 L296.5 359.37 L298.0 360.87 L299.5 362.34 L301.0 363.79 L302.5 365.22 L304.0 366.62 L305.5 367.99 L307.0 369.34 L308.5 370.65 L310.0 371.93 L311.5 373.17 L313.0 374.38 L314.5 375.56 L316.0 376.69 L317.5 377.79 L319.0 378.85 L320.5 379.86 L322.0 380.83 L323.5 381.76 L325.0 382.64 L326.5 383.48 L328.0 384.27 L329.5 385.01 L331.0 385.7 L332.5 386.35 L334.0 386.94 L335.5 387.48 L337.0 387.97 L338.5 388.41 L340.0 388.8 L341.5 389.13 L343.0 389.41 L344.5 389.63 L346.0 389.81 L347.5 389.92 L349.0 389.99 L350.5 390.0 L352.0 389.95 L353.5 389.85 L355.0 389.7 L356.5 389.49 L358.0 389.23 L359.5 388.91 L361.0 388.55 L362.5 388.12 L364.0 387.65 L365.5 387.13 L367.0 386.55 L368.5 385.92 L370.0 385.25 L371.5 384.52 L373.0 383.75 L374.5 382.93 L376.0 382.06 L377.5 381.15 L379.0 380.19 L380.5 379.19 L382.0 378.15 L383.5 377.06 L385.0 375.94 L386.5 374.78 L388.0 373.58 L389.5 372.35 L391.0 371.08 L392.5 369.78 L394.0 368.44 L395.5 367.08 L397.0 365.69 L398.5 364.27 L400.0 362.83 L401.5 361.36 L403.0 359.87 L404.5 358.36 L406.0 356.83 L407.5 355.29 L409.0 353.73 L410.5 352.16 L412.0 350.57 L413.5 348.98 L415.0 347.37 L416.5 345.77 L418.0 344.15 L419.5 342.54 L421.0 340.92 L422.5 339.31 L424.0 337.7 L425.5 336.09 L427.0 334.49 L428.5 332.9 L430.0 331.32 L431.5 329.75 L433.0 328.2 L434.5 326.66 L436.0 325.13 L437.5 323.63 L439.0 322.15 L440.5 320.69 L442.0 319.25 L443.5 317.84 L445.0 316.46 L446.5 315.11 L448.0 313.79 L449.5 312.5 L451.0 311.24 L452.5 310.02 L454.0 308.83 L455.5 307.68 L457.0 306.57 L458.5 305.5 L460.0 304.47 L461.5 303.49 L463.0 302.54 L464.5 301.65 L466.0 300.79 L467.5 299.99 L469.0 299.23 L470.5 298.52 L472.0 297.86 L473.5 297.25 L475.0 296.69 L476.5 296.19 L478.0 295.73 L479.5 295.33 L481.0 294.98 L482.5 294.68 L484.0 294.43 L485.5 294.24 L487.0 294.11 L488.5 294.03 L490.0 294.0 L491.5 294.03 L493.0 294.11 L494.5 294.24 L496.0 294.43 L497.5 294.68 L499.0 294.98 L500.5 295.33 L502.0 295.73 L503.5 296.19 L505.0 296.69 L506.5 297.25 L508.0 297.86 L509.5 298.52 L511.0 299.23 L512.5 299.99 L514.0 300.79 L515.5 301.65 L517.0 302.54 L518.5 303.49 L520.0 304.47 L521.5 305.5 L523.0 306.57 L524.5 307.68 L526.0 308.83 L527.5 310.02 L529.0 311.24 L530.5 312.5 L532.0 313.79 L533.5 315.11 L535.0 316.46 L536.5 317.84 L538.0 319.25 L539.5 320.69 L541.0 322.15 L542.5 323.63 L544.0 325.13 L545.5 326.66 L547.0 328.2 L548.5 329.75 L550.0 331.32 L551.5 332.9 L553.0 334.49 L554.5 336.09 L556.0 337.7 L557.5 339.31 L559.0 340.92 L560.5 342.54 L562.0 344.15 L563.5 345.77 L565.0 347.37 L566.5 348.98 L568.0 350.57 L569.5 352.16 L571.0 353.73 L572.5 355.29 L574.0 356.83 L575.5 358.36 L577.0 359.87 L578.5 361.36 L580.0 362.83 L581.5 364.27 L583.0 365.69 L584.5 367.08 L586.0 368.44 L587.5 369.78 L589.0 371.08 L590.5 372.35 L592.0 373.58 L593.5 374.78 L595.0 375.94 L596.5 377.06 L598.0 378.15 L599.5 379.19 L601.0 380.19 L602.5 381.15 L604.0 382.06 L605.5 382.93 L607.0 383.75 L608.5 384.52 L610.0 385.25" fill="none" stroke="#5AA0EE" stroke-width="2.8" opacity="0.9" stroke-linejoin="round"/>

<!-- Peak markers at coupling points: small dots where all waves align -->
<!-- x=210: all peaks -->
<circle cx="210" cy="58" r="3.5" fill="#E8734A" opacity="0.9"/>
<circle cx="210" cy="176" r="3.5" fill="#9B93EE" opacity="0.9"/>
<circle cx="210" cy="294" r="3.5" fill="#5AA0EE" opacity="0.9"/>
<!-- x=490: all peaks -->
<circle cx="490" cy="58" r="3.5" fill="#E8734A" opacity="0.9"/>
<circle cx="490" cy="176" r="3.5" fill="#9B93EE" opacity="0.9"/>
<circle cx="490" cy="294" r="3.5" fill="#5AA0EE" opacity="0.9"/>

<!-- Coupling labels -->
<text class="ts" x="210" y="420" text-anchor="middle" fill="#DBA030">synchronize</text>
<text class="ts" x="490" y="420" text-anchor="middle" fill="#DBA030">synchronize</text>

<!-- DCR mapping labels -->
<text class="ts" x="622" y="72" text-anchor="start" opacity="0.7">DCR</text>
<text class="ts" x="622" y="86" text-anchor="start" opacity="0.7">local</text>
<text class="ts" x="622" y="206" text-anchor="start" opacity="0.7">DCR</text>
<text class="ts" x="622" y="220" text-anchor="start" opacity="0.7">medium</text>
<text class="ts" x="622" y="336" text-anchor="start" opacity="0.7">DCR</text>
<text class="ts" x="622" y="350" text-anchor="start" opacity="0.7">global</text>

</svg>
